HIERARCHY
ROOT Hips
{
	OFFSET 0.000000 0.000000 0.000000
	CHANNELS 6 Xposition Yposition Zposition Yrotation Xrotation Zrotation 
	JOINT LeftHip
	{
		OFFSET 0.088514 -0.001098 0.000122
		CHANNELS 3 Yrotation Xrotation Zrotation
		JOINT LeftKnee
		{
			OFFSET 0.000000 -0.377351 -0.000006
			CHANNELS 3 Yrotation Xrotation Zrotation
			JOINT LeftAnkle
			{
				OFFSET 0.000000 -0.409320 0.000162
				CHANNELS 3 Yrotation Xrotation Zrotation
				JOINT LeftToe
				{
					OFFSET 0.000000 -0.080722 0.175165
					CHANNELS 3 Yrotation Xrotation Zrotation
					End Site
					{
						OFFSET 0.000000 0.000000 0.000000
					}
				}
			}
		}
	}
	JOINT RightHip
	{
		OFFSET -0.088514 -0.001076 0.000120
		CHANNELS 3 Yrotation Xrotation Zrotation
		JOINT RightKnee
		{
			OFFSET 0.000000 -0.377351 -0.000006
			CHANNELS 3 Yrotation Xrotation Zrotation
			JOINT RightAnkle
			{
				OFFSET 0.000000 -0.409320 0.000162
				CHANNELS 3 Yrotation Xrotation Zrotation
				JOINT RightToe
				{
					OFFSET 0.000000 -0.080722 0.175165
					CHANNELS 3 Yrotation Xrotation Zrotation
					End Site
					{
						OFFSET 0.000000 0.000000 0.000000
					}
				}
			}
		}
	}
	JOINT Chest
	{
		OFFSET 0.000000 0.109830 -0.012203
		CHANNELS 3 Yrotation Xrotation Zrotation
		JOINT Chest3
		{
			OFFSET 0.000000 0.219648 -0.010220
			CHANNELS 3 Yrotation Xrotation Zrotation
			JOINT Chest4
			{
				OFFSET 0.000000 0.104914 0.000445
				CHANNELS 3 Yrotation Xrotation Zrotation
				JOINT Neck
				{
					OFFSET 0.000000 0.146306 0.000000
					CHANNELS 3 Yrotation Xrotation Zrotation
					JOINT Head
					{
						OFFSET 0.000000 0.086907 -0.000103
						CHANNELS 3 Yrotation Xrotation Zrotation
						End Site
						{
							OFFSET 0.000000 0.000000 0.000000
						}
					}
				}
				JOINT LeftCollar
				{
					OFFSET 0.030074 0.081747 0.000000
					CHANNELS 3 Yrotation Xrotation Zrotation
					JOINT LeftShoulder
					{
						OFFSET 0.131781 0.000000 0.000000
						CHANNELS 3 Yrotation Xrotation Zrotation
						JOINT LeftElbow
						{
							OFFSET 0.252146 0.000000 0.000000
							CHANNELS 3 Yrotation Xrotation Zrotation
							JOINT LeftWrist
							{
								OFFSET 0.244457 0.000000 0.000079
								CHANNELS 3 Yrotation Xrotation Zrotation
								End Site
								{
									OFFSET 0.000000 0.000000 0.000000
								}
							}
						}
					}
				}
				JOINT RightCollar
				{
					OFFSET -0.030074 0.081747 0.000000
					CHANNELS 3 Yrotation Xrotation Zrotation
					JOINT RightShoulder
					{
						OFFSET -0.131781 0.000000 0.000000
						CHANNELS 3 Yrotation Xrotation Zrotation
						JOINT RightElbow
						{
							OFFSET -0.252146 0.000000 0.000000
							CHANNELS 3 Yrotation Xrotation Zrotation
							JOINT RightWrist
							{
								OFFSET -0.244457 0.000000 0.000079
								CHANNELS 3 Yrotation Xrotation Zrotation
								End Site
								{
									OFFSET 0.000000 0.000000 0.000000
								}
							}
						}
					}
				}
			}
		}
	}
}
MOTION
Frames: 5
Frame Time: 0.016667
0.000000 0.000000 0.000000 333.661150 352.688943 1.367517 9.829881 357.929968 4.395638 2.039203 12.394901 0.196916 14.088284 354.957873 355.170319 0.512526 0.503017 0.161057 347.050991 1.413071 349.487660 357.828124 13.652169 359.471300 343.409545 351.526050 9.162508 0.295025 359.262458 0.471197 0.264478 5.211818 358.070185 0.231538 359.171727 358.471847 5.483359 7.283215 359.506146 356.514054 18.029407 1.457051 353.161588 357.048494 4.142497 0.487115 2.552794 353.544560 357.107239 344.372353 285.226226 269.768512 334.281244 330.184837 1.382777 1.815684 15.692045 359.972229 0.732524 4.108958 26.742170 318.766242 62.926501 53.162619 331.920287 7.313614 352.294232 3.186836 338.085390 
0.000000 0.000000 0.000000 333.653538 352.710782 1.373937 9.831860 357.907755 4.384152 2.042232 12.386851 0.192020 14.091033 354.960626 355.177566 0.531851 0.544026 0.158322 347.055352 1.375951 349.487263 357.829372 13.659080 359.469763 343.416685 351.532444 9.160619 0.329516 359.249867 0.453530 0.264556 5.171530 358.076373 0.230434 359.136405 358.477721 5.333054 7.264166 359.502532 356.446628 18.008279 1.437879 353.117193 356.996715 4.166585 0.493985 2.567361 353.530455 357.098340 344.336814 285.259757 269.751058 334.327842 330.173197 1.386110 1.820462 15.668801 359.899336 0.672157 4.118783 26.381583 318.793285 62.635560 53.516797 331.547526 6.953788 352.408411 3.317842 337.844664 
0.000000 0.000000 0.000000 333.663925 352.727213 1.378992 9.827102 357.888254 4.373697 2.043092 12.377607 0.187946 14.084560 354.965525 355.185314 0.543892 0.579842 0.140835 347.052280 1.342015 349.485894 357.828678 13.676780 359.468500 343.415040 351.533513 9.162383 0.344530 359.220151 0.446398 0.264265 5.133029 358.083319 0.229209 359.102631 358.484307 5.167700 7.245908 359.498086 356.370660 17.987887 1.412757 353.062698 356.948478 4.191607 0.501595 2.583033 353.515543 357.097077 344.299790 285.291778 269.720811 334.387916 330.176654 1.370359 1.862639 15.645899 359.808101 0.597558 4.122982 25.961133 318.823093 62.340342 53.892986 331.032774 6.561627 352.511902 3.262171 337.536250 
0.000000 0.000000 0.000000 333.681363 352.738363 1.386517 9.819719 357.880958 4.361862 2.041830 12.358655 0.183534 14.075682 354.972664 355.194248 0.545270 0.606572 0.123354 347.047664 1.324370 349.481196 357.825393 13.681717 359.468238 343.408747 351.534307 9.161103 0.347285 359.195043 0.444894 0.263968 5.094258 358.088440 0.228404 359.068640 358.489258 4.994563 7.227286 359.493052 356.288422 17.968480 1.384824 352.984166 356.911541 4.211782 0.509141 2.599410 353.500328 357.108112 344.269264 285.324807 269.706009 334.436573 330.178303 1.331543 1.948126 15.622630 359.706259 0.527734 4.128921 25.470823 318.879371 62.086266 54.267098 330.512449 6.150516 352.584615 3.033543 337.164406 
0.000000 0.000000 0.000000 333.706724 352.740388 1.398918 9.809391 357.894784 4.346525 2.037462 12.324784 0.178396 14.064600 354.982252 355.205138 0.541015 0.620565 0.106857 347.041322 1.334891 349.469483 357.818138 13.662293 359.469265 343.397162 351.536845 9.155133 0.341988 359.175167 0.453924 0.263664 5.055277 358.090715 0.228302 359.034493 358.491637 4.815030 7.208476 359.487345 356.202298 17.951916 1.354483 352.879118 356.883971 4.222013 0.517360 2.615387 353.485702 357.136759 344.249699 285.358851 269.720991 334.461697 330.170442 1.284894 2.035004 15.597924 359.602268 0.447216 4.130150 24.940974 319.015982 61.805850 54.600040 329.936018 5.740342 352.612123 2.733140 336.706184 
